<svg xmlns="http://www.w3.org/2000/svg" version="1.1" xmlns:xlink="http://www.w3.org/1999/xlink" xmlns:svgjs="http://svgjs.dev/svgjs" width="1400" height="1400"><svg width="1400" height="1400" viewBox="0 0 1400 1400" fill="none" xmlns="http://www.w3.org/2000/svg">
<path d="M1137.14 1137.14C1252.94 1021.33 1318 864.271 1318 700.5C1318 536.729 1252.94 379.665 1137.14 263.862C1021.33 148.058 864.271 83 700.5 83C536.729 83 379.665 148.058 263.862 263.862C148.058 379.665 83 536.729 83 700.5C83 864.271 148.058 1021.33 263.862 1137.14C379.665 1252.94 536.729 1318 700.5 1318C864.271 1318 1021.33 1252.94 1137.14 1137.14Z" fill="white" stroke="#212121" stroke-width="10"></path>
<path d="M0 700C0 885.652 73.7498 1063.7 205.025 1194.97C336.301 1326.25 514.348 1400 700 1400V1312.5C537.555 1312.5 381.763 1247.97 266.897 1133.1C152.031 1018.24 87.5 862.445 87.5 700H0Z" fill="#212121"></path>
<path d="M0 700C0 885.652 73.7498 1063.7 205.025 1194.97C336.301 1326.25 514.348 1400 700 1400V1312.5C537.555 1312.5 381.763 1247.97 266.897 1133.1C152.031 1018.24 87.5 862.445 87.5 700H0Z" fill="#212121"></path>
<path d="M0 700C0 885.652 73.7498 1063.7 205.025 1194.97C336.301 1326.25 514.348 1400 700 1400V700H0Z" fill="#212121" fill-opacity="0.25"></path>
<path d="M700 1400C885.652 1400 1063.7 1326.25 1194.97 1194.97C1326.25 1063.7 1400 885.652 1400 700H1312.5C1312.5 862.445 1247.97 1018.24 1133.1 1133.1C1018.24 1247.97 862.445 1312.5 700 1312.5V1400Z" fill="#212121"></path>
<path d="M700 1400C885.652 1400 1063.7 1326.25 1194.97 1194.97C1326.25 1063.7 1400 885.652 1400 700H1312.5C1312.5 862.445 1247.97 1018.24 1133.1 1133.1C1018.24 1247.97 862.445 1312.5 700 1312.5V1400Z" fill="#212121"></path>
<path d="M700 1400C885.652 1400 1063.7 1326.25 1194.97 1194.97C1326.25 1063.7 1400 885.652 1400 700H700V1400Z" fill="#212121" fill-opacity="0.25"></path>
<path d="M1400 700C1400 514.348 1326.25 336.301 1194.97 205.025C1063.7 73.7498 885.652 0 700 0V87.5C862.445 87.5 1018.24 152.031 1133.1 266.897C1247.97 381.763 1312.5 537.555 1312.5 700H1400Z" fill="#212121"></path>
<path d="M1400 700C1400 514.348 1326.25 336.301 1194.97 205.025C1063.7 73.7498 885.652 0 700 0V87.5C862.445 87.5 1018.24 152.031 1133.1 266.897C1247.97 381.763 1312.5 537.555 1312.5 700H1400Z" fill="#212121"></path>
<path d="M1400 700C1400 514.348 1326.25 336.301 1194.97 205.025C1063.7 73.7498 885.652 0 700 0V700H1400Z" fill="#212121" fill-opacity="0.25"></path>
<path d="M700 0C514.348 0 336.301 73.7498 205.025 205.025C73.7498 336.301 0 514.348 0 700H87.5C87.5 537.555 152.031 381.763 266.897 266.897C381.763 152.031 537.555 87.5 700 87.5V0Z" fill="#212121"></path>
<path d="M700 0C514.348 0 336.301 73.7498 205.025 205.025C73.7498 336.301 0 514.348 0 700H87.5C87.5 537.555 152.031 381.763 266.897 266.897C381.763 152.031 537.555 87.5 700 87.5V0Z" fill="#212121"></path>
<path d="M700 0C514.348 0 336.301 73.7498 205.025 205.025C73.7498 336.301 0 514.348 0 700H700V0Z" fill="#212121" fill-opacity="0.25"></path>
<path d="M744.5 218.75C744.5 207.147 739.891 196.019 731.686 187.814C723.481 179.609 712.353 175 700.75 175C689.147 175 678.019 179.609 669.814 187.814C661.609 196.019 657 207.147 657 218.75V700C657.002 707.712 659.043 715.285 662.915 721.954C666.788 728.623 672.354 734.15 679.05 737.975L985.3 912.975C995.35 918.407 1007.13 919.692 1018.11 916.556C1029.1 913.42 1038.42 906.111 1044.09 896.192C1049.75 886.274 1051.32 874.531 1048.44 863.475C1045.57 852.419 1038.48 842.926 1028.7 837.025L744.5 674.625V218.75Z" fill="#212121"></path>
<path d="M1307.5 700C1307.5 861.119 1243.5 1015.64 1129.57 1129.57C1015.64 1243.5 861.119 1307.5 700 1307.5C538.881 1307.5 384.361 1243.5 270.433 1129.57C156.504 1015.64 92.5 861.119 92.5 700C92.5 538.881 156.504 384.361 270.433 270.433C384.361 156.504 538.881 92.5 700 92.5C861.119 92.5 1015.64 156.504 1129.57 270.433C1243.5 384.361 1307.5 538.881 1307.5 700Z" fill="white" fill-opacity="0.5" stroke="#212121" stroke-width="10"></path>
</svg><style>@media (prefers-color-scheme: light) { :root { filter: none; } }
@media (prefers-color-scheme: dark) { :root { filter: none; } }
</style></svg>